<?xml version="1.0" encoding="UTF-8" standalone="no"?>
<!DOCTYPE svg PUBLIC "-//W3C//DTD SVG 1.1//EN" "http://www.w3.org/Graphics/SVG/1.1/DTD/svg11.dtd">
<svg width="100%" height="100%" viewBox="0 0 5000 5000" version="1.1" xmlns="http://www.w3.org/2000/svg" xmlns:xlink="http://www.w3.org/1999/xlink" xml:space="preserve" xmlns:serif="http://www.serif.com/" style="fill-rule:evenodd;clip-rule:evenodd;stroke-linejoin:round;stroke-miterlimit:2;">
    <g transform="matrix(5.43547,0,0,5.43547,1108.52,741.58)">
        <g id="hospital--1-" serif:id="hospital (1)">
            <g>
                <path d="M41.346,131.657L41.346,394.971L244.045,512L470.654,380.343L470.654,117.029L269.382,0L41.346,131.657Z" style="fill:rgb(216,216,218);fill-rule:nonzero;"/>
                <path d="M470.654,117.029L470.654,380.343L244.045,512L244.045,248.685L470.654,117.029Z" style="fill:rgb(198,197,203);fill-rule:nonzero;"/>
                <path d="M383.253,291.855L383.296,306.855L379.708,308.926L379.691,303.059L375.317,305.584L375.334,311.451L371.746,313.522L371.703,298.522L375.291,296.451L375.307,301.985L379.681,299.46L379.665,293.926L383.253,291.855M391.455,298.618C391.966,298.323 392.42,297.934 392.792,297.497C393.178,297.036 393.481,296.56 393.728,296.035C393.961,295.534 394.14,295.003 394.248,294.463C394.371,293.9 394.425,293.392 394.424,292.901C394.423,292.393 394.352,291.942 394.24,291.53C394.115,291.126 393.92,290.825 393.671,290.604C393.421,290.398 393.104,290.28 392.731,290.29C392.358,290.283 391.916,290.427 391.42,290.714C390.895,291.017 390.455,291.383 390.083,291.819C389.711,292.271 389.394,292.741 389.161,293.257C388.914,293.78 388.736,294.297 388.612,294.844C388.503,295.383 388.449,295.891 388.451,296.382C388.452,296.89 388.508,297.35 388.635,297.753C388.76,298.157 388.941,298.466 389.19,298.687C389.44,298.909 389.744,299.034 390.117,299.041C390.488,299.064 390.944,298.913 391.455,298.618M391.463,287.019C392.457,286.445 393.354,286.15 394.169,286.124C394.97,286.091 395.662,286.279 396.244,286.657C396.826,287.036 397.269,287.606 397.589,288.342C397.909,289.063 398.063,289.926 398.067,290.878C398.07,291.861 397.907,292.908 397.578,294.003C397.249,295.114 396.796,296.17 396.205,297.21C395.614,298.251 394.911,299.228 394.099,300.11C393.286,301.009 392.39,301.732 391.424,302.29C390.43,302.864 389.533,303.175 388.718,303.201C387.917,303.219 387.211,303.055 386.643,302.668C386.062,302.289 385.604,301.743 385.284,301.007C384.964,300.286 384.81,299.423 384.806,298.455C384.803,297.456 384.966,296.409 385.295,295.314C385.623,294.203 386.077,293.131 386.668,292.092C387.259,291.051 387.962,290.09 388.788,289.2C389.6,288.301 390.483,287.584 391.463,287.019M404.021,279.737C403.372,280.111 402.751,280.581 402.173,281.121C401.594,281.678 401.084,282.289 400.63,282.981C400.177,283.672 399.818,284.402 399.558,285.188C399.298,285.974 399.162,286.783 399.164,287.623C399.165,288.162 399.236,288.614 399.361,288.97C399.486,289.311 399.694,289.572 399.958,289.754C400.235,289.927 400.581,290.03 400.996,290.044C401.411,290.059 401.908,290.025 402.488,289.913C402.875,289.848 403.248,289.76 403.607,289.664C403.953,289.576 404.256,289.527 404.533,289.479C404.809,289.431 405.017,289.438 405.169,289.493C405.322,289.564 405.405,289.69 405.405,289.896C405.406,290.102 405.322,290.309 405.172,290.507C405.021,290.721 404.745,290.944 404.358,291.167C403.833,291.47 403.336,291.661 402.84,291.79C402.343,291.903 401.887,291.975 401.499,291.992C401.029,292.025 400.587,291.994 400.158,291.941L398.623,296.449C399.011,296.495 399.439,296.487 399.895,296.429C400.364,296.364 400.834,296.284 401.332,296.155C401.829,296.011 402.34,295.843 402.837,295.636C403.334,295.445 403.831,295.189 404.313,294.911C404.906,294.568 405.5,294.146 406.106,293.637C406.698,293.135 407.223,292.564 407.705,291.92C408.173,291.285 408.544,290.577 408.832,289.792C409.12,289.022 409.27,288.173 409.267,287.27C409.265,286.572 409.167,286.026 408.986,285.638C408.792,285.258 408.528,284.981 408.182,284.831C407.836,284.697 407.421,284.635 406.938,284.66C406.455,284.685 405.915,284.758 405.308,284.902C404.935,284.974 404.59,285.046 404.286,285.127C403.982,285.207 403.733,285.24 403.526,285.264C403.319,285.272 403.153,285.257 403.042,285.194C402.931,285.131 402.875,284.988 402.875,284.798C402.874,284.528 402.97,284.282 403.163,284.06C403.356,283.837 403.604,283.631 403.922,283.448C404.322,283.217 404.722,283.066 405.137,282.969C405.537,282.897 405.91,282.84 406.242,282.807C406.643,282.782 407.016,282.789 407.389,282.828L408.925,278.526C408.635,278.535 408.303,278.535 407.929,278.56C407.556,278.585 407.169,278.633 406.741,278.722C406.313,278.811 405.871,278.923 405.429,279.083C404.973,279.236 404.503,279.458 404.021,279.737M414.417,280.675L416.307,279.583C416.542,279.447 416.734,279.225 416.927,278.876C417.119,278.527 417.215,278.059 417.213,277.456C417.211,276.837 417.099,276.473 416.879,276.379C416.657,276.268 416.437,276.285 416.215,276.412L414.407,277.456L414.417,280.675M416.439,272.694C417.074,272.327 417.668,272.128 418.207,272.118C418.746,272.109 419.216,272.234 419.604,272.503C419.992,272.772 420.297,273.151 420.519,273.642C420.742,274.149 420.853,274.719 420.855,275.354C420.857,276.004 420.748,276.718 420.543,277.472C420.338,278.21 420.05,278.932 419.679,279.639C419.308,280.345 418.854,280.989 418.316,281.586C417.793,282.19 417.199,282.676 416.565,283.042L414.426,284.277L414.439,288.876L410.851,290.948L410.808,275.948L416.439,272.694M425.865,267.253L422.277,269.325L422.32,284.325L425.908,282.253L425.865,267.253M438.283,260.082L427.175,266.495L427.185,270.079L430.952,267.904L430.984,279.32L434.571,277.249L434.539,265.833L438.292,263.666L438.283,260.082M442.229,267.143L444.602,265.773L443.43,261.78L442.229,267.143M445.06,256.171L449.629,268.558L445.987,270.661L445.178,268.19L441.701,270.197L440.936,273.576L437.28,275.687L441.777,258.066L445.06,256.171M454.249,250.865L450.661,252.936L450.704,267.936L460.225,262.439L460.215,258.855L454.281,262.281L454.249,250.865" style="fill:rgb(198,0,36);fill-rule:nonzero;"/>
                <path d="M117.358,204.996L244.045,278.138L244.045,512L117.358,439.053L117.358,204.996Z" style="fill:rgb(89,164,255);fill-rule:nonzero;"/>
                <g>
                    <path d="M244.045,278.138L345.394,219.429L345.397,453.455L244.045,512L244.045,278.138Z" style="fill:rgb(36,135,255);fill-rule:nonzero;"/>
                    <path d="M438.305,399.137L438.305,307.947L396.852,331.959L396.852,423.22L438.305,399.137Z" style="fill:rgb(36,135,255);fill-rule:nonzero;"/>
                </g>
                <path d="M416.39,411.87L418.768,410.488L418.768,319.264L416.39,320.642L416.39,411.87Z" style="fill:rgb(1,110,241);fill-rule:nonzero;"/>
                <path d="M41.346,131.657L269.382,0L470.654,117.029L244.045,248.685L41.346,131.657Z" style="fill:rgb(224,224,226);fill-rule:nonzero;"/>
                <path d="M92.021,131.657L269.382,29.257L419.979,117.029L244.045,219.429L92.021,131.657Z" style="fill:rgb(137,136,144);fill-rule:nonzero;"/>
                <path d="M277.756,135.313L289.433,142.055L301.109,135.313L312.786,142.055L301.109,148.797L312.786,155.538L347.815,135.313L336.139,128.572L324.462,135.313L312.786,128.572L324.462,121.83L312.786,115.089L277.756,135.313Z" style="fill:rgb(224,224,226);fill-rule:nonzero;"/>
                <path d="M117.358,146.286L269.382,58.514L269.382,29.257L92.021,131.657L117.358,146.286Z" style="fill:rgb(172,171,177);fill-rule:nonzero;"/>
                <path d="M141.061,120.685L191.736,91.427L242.411,120.685L242.411,149.942L191.736,179.2L141.061,149.942L141.061,120.685Z" style="fill:rgb(224,224,226);fill-rule:nonzero;"/>
                <path d="M141.061,120.685L141.061,149.942L191.736,179.2L191.736,149.942L141.061,120.685Z" style="fill:rgb(198,197,203);fill-rule:nonzero;"/>
                <path d="M191.736,179.2L242.411,149.942L242.411,120.685L191.736,149.942L191.736,179.2Z" style="fill:rgb(172,171,177);fill-rule:nonzero;"/>
                <path d="M269.382,58.514L393.323,132.543L419.979,117.029L269.382,29.257L269.382,58.514Z" style="fill:rgb(198,197,203);fill-rule:nonzero;"/>
                <path d="M396.452,219.184L396.452,198.375L415.189,187.523L422.021,191.494L422.021,204.421L433.357,197.877L440.189,201.846L440.189,223.445L422.141,233.9L422.201,254.709L403.346,265.56L396.513,261.591L396.513,248.683L385.175,255.207L378.343,251.237L378.343,229.639L396.452,219.184Z" style="fill:rgb(165,0,32);fill-rule:nonzero;"/>
                <path d="M403.346,244.752L396.513,240.782L396.513,261.591L403.346,265.56L403.346,244.752Z" style="fill:rgb(198,0,36);fill-rule:nonzero;"/>
                <path d="M440.189,201.846L433.357,197.877L415.248,208.332L422.021,212.302L440.189,201.846Z" style="fill:rgb(254,11,55);fill-rule:nonzero;"/>
                <path d="M385.175,233.609L378.343,229.639L378.343,251.237L385.175,255.207L385.175,233.609Z" style="fill:rgb(198,0,36);fill-rule:nonzero;"/>
                <path d="M403.284,223.154L396.452,219.183L378.343,229.639L385.175,233.609L403.284,223.154Z" style="fill:rgb(254,11,55);fill-rule:nonzero;"/>
                <path d="M403.284,202.345L396.452,198.375L396.452,219.183L403.284,223.154L403.284,202.345Z" style="fill:rgb(198,0,36);fill-rule:nonzero;"/>
                <path d="M422.021,191.494L415.189,187.523L396.452,198.375L403.284,202.345L422.021,191.494Z" style="fill:rgb(254,11,55);fill-rule:nonzero;"/>
                <path d="M403.284,202.345L403.284,223.154L385.175,233.609L385.175,255.207L403.346,244.752L403.346,265.56L422.201,254.709L422.141,233.9L440.189,223.445L440.189,201.846L422.021,212.302L422.021,191.494L403.284,202.345Z" style="fill:rgb(165,0,32);fill-rule:nonzero;"/>
            </g>
        </g>
    </g>
    <g transform="matrix(1.30451,0,0,1.30451,-735.193,-1249.23)">
        <path d="M4319,3634.75C4319,3526.71 4231.29,3439 4123.25,3439L876.75,3439C768.713,3439 681,3526.71 681,3634.75L681,4026.25C681,4134.29 768.713,4222 876.75,4222L4123.25,4222C4231.29,4222 4319,4134.29 4319,4026.25L4319,3634.75Z" style="fill:rgb(255,77,109);"/>
    </g>
    <g transform="matrix(1.30451,0,0,1.30451,-787.374,-1304.02)">
        <path d="M4319,3634.75C4319,3526.71 4231.29,3439 4123.25,3439L876.75,3439C768.713,3439 681,3526.71 681,3634.75L681,4026.25C681,4134.29 768.713,4222 876.75,4222L4123.25,4222C4231.29,4222 4319,4134.29 4319,4026.25L4319,3634.75Z" style="fill:url(#_Linear1);"/>
    </g>
    <defs>
        <linearGradient id="_Linear1" x1="0" y1="0" x2="1" y2="0" gradientUnits="userSpaceOnUse" gradientTransform="matrix(1.29384e-13,-2113,2113,1.29384e-13,2571,4632)"><stop offset="0" style="stop-color:white;stop-opacity:1"/><stop offset="1" style="stop-color:rgb(252,237,240);stop-opacity:1"/></linearGradient>
    </defs>
</svg>
