<?xml version="1.0" encoding="UTF-8" standalone="no"?>
<!DOCTYPE svg PUBLIC "-//W3C//DTD SVG 1.1//EN" "http://www.w3.org/Graphics/SVG/1.1/DTD/svg11.dtd">
<svg width="100%" height="100%" viewBox="0 0 5000 5000" version="1.1" xmlns="http://www.w3.org/2000/svg" xmlns:xlink="http://www.w3.org/1999/xlink" xml:space="preserve" xmlns:serif="http://www.serif.com/" style="fill-rule:evenodd;clip-rule:evenodd;stroke-linecap:round;stroke-linejoin:round;stroke-miterlimit:22.926;">
    <g transform="matrix(18.2891,0,0,18.2891,564.469,-789.374)">
        <g transform="matrix(1,0,0,1,105.952,227.255)">
            <path d="M0,-50.988C29.423,-50.988 53.627,-28.645 56.573,0L-56.573,0C-53.627,-28.645 -29.423,-50.988 0,-50.988" style="fill:rgb(124,165,235);"/>
        </g>
        <g>
            <clipPath id="_clip1">
                <path d="M49.379,227.254L162.525,227.254C159.579,198.61 135.375,176.266 105.952,176.266C76.53,176.266 52.325,198.61 49.379,227.254Z" clip-rule="nonzero"/>
            </clipPath>
            <g clip-path="url(#_clip1)">
                <g opacity="0.15">
                    <g transform="matrix(1,0,0,-1,0,500)">
                        <rect x="49.122" y="245.62" width="2.799" height="88.899" style="fill:white;"/>
                    </g>
                </g>
                <g opacity="0.15">
                    <g transform="matrix(1,0,0,-1,-0.0001,500)">
                        <rect x="55.281" y="245.62" width="2.799" height="88.899" style="fill:white;"/>
                    </g>
                </g>
                <g opacity="0.15">
                    <g transform="matrix(1,0,0,-1,0,500)">
                        <rect x="61.44" y="245.62" width="2.799" height="88.899" style="fill:white;"/>
                    </g>
                </g>
                <g opacity="0.15">
                    <g transform="matrix(1,0,0,-1,0.0009,500)">
                        <rect x="67.598" y="245.62" width="2.8" height="88.899" style="fill:white;"/>
                    </g>
                </g>
                <g opacity="0.15">
                    <g transform="matrix(1,0,0,-1,0.0005,500)">
                        <rect x="73.757" y="245.62" width="2.799" height="88.899" style="fill:white;"/>
                    </g>
                </g>
                <g opacity="0.15">
                    <g transform="matrix(1,0,0,-1,-0.0005,500)">
                        <rect x="79.917" y="245.62" width="2.799" height="88.899" style="fill:white;"/>
                    </g>
                </g>
                <g opacity="0.15">
                    <g transform="matrix(1,0,0,-1,-0.0005,500)">
                        <rect x="86.076" y="245.62" width="2.799" height="88.899" style="fill:white;"/>
                    </g>
                </g>
                <g opacity="0.15">
                    <g transform="matrix(-1,0,0,1,187.269,-80.139)">
                        <rect x="92.235" y="245.62" width="2.799" height="88.899" style="fill:white;"/>
                    </g>
                </g>
                <g opacity="0.15">
                    <g transform="matrix(-1,0,0,1,199.585,-80.139)">
                        <rect x="98.393" y="245.62" width="2.799" height="88.899" style="fill:white;"/>
                    </g>
                </g>
                <g opacity="0.15">
                    <g transform="matrix(-1,0,0,1,211.905,-80.139)">
                        <rect x="104.553" y="245.62" width="2.799" height="88.899" style="fill:white;"/>
                    </g>
                </g>
                <g opacity="0.15">
                    <g transform="matrix(-1,0,0,1,224.223,-80.139)">
                        <rect x="110.712" y="245.62" width="2.799" height="88.899" style="fill:white;"/>
                    </g>
                </g>
                <g opacity="0.15">
                    <g transform="matrix(1,0,0,-1,0,500)">
                        <rect x="116.87" y="245.62" width="2.8" height="88.899" style="fill:white;"/>
                    </g>
                </g>
                <g opacity="0.15">
                    <g transform="matrix(1,0,0,-1,0,500)">
                        <rect x="123.029" y="245.62" width="2.8" height="88.899" style="fill:white;"/>
                    </g>
                </g>
                <g opacity="0.15">
                    <g transform="matrix(1,0,0,-1,0,500)">
                        <rect x="129.188" y="245.62" width="2.799" height="88.899" style="fill:white;"/>
                    </g>
                </g>
                <g opacity="0.15">
                    <g transform="matrix(1,0,0,-1,5.68434e-14,500)">
                        <rect x="135.347" y="245.62" width="2.799" height="88.899" style="fill:white;"/>
                    </g>
                </g>
                <g opacity="0.15">
                    <g transform="matrix(1,0,0,-1,0,500)">
                        <rect x="141.506" y="245.62" width="2.799" height="88.899" style="fill:white;"/>
                    </g>
                </g>
                <g opacity="0.15">
                    <g transform="matrix(1,0,0,-1,0,500)">
                        <rect x="147.665" y="245.62" width="2.799" height="88.899" style="fill:white;"/>
                    </g>
                </g>
                <g opacity="0.15">
                    <g transform="matrix(1,0,0,-1,-0.001,500)">
                        <rect x="153.825" y="245.62" width="2.799" height="88.899" style="fill:white;"/>
                    </g>
                </g>
                <g opacity="0.15">
                    <g transform="matrix(1,0,0,-1,0,500)">
                        <rect x="159.983" y="245.62" width="2.799" height="88.899" style="fill:white;"/>
                    </g>
                </g>
            </g>
        </g>
        <g transform="matrix(1,0,0,1,95.7788,202.204)">
            <path d="M0,-61.912L22.105,-61.912L22.105,-22.839C22.105,-2.303 1.495,0 0,-22.839L0,-61.912Z" style="fill:rgb(255,204,186);"/>
        </g>
        <g transform="matrix(1,0,0,1,95.6777,204.452)">
            <path d="M0,-62.353L22.105,-62.353L22.105,-23.28C22.105,-17.202 15.345,-10.656 10.839,0C5.815,-10.751 0,-17.201 0,-23.28L0,-62.353Z" style="fill:rgb(255,204,186);"/>
        </g>
        <g transform="matrix(1,0,0,1,95.5283,204.451)">
            <path d="M0,-31.545L10.989,0L-4.187,-24.751L0,-31.545Z" style="fill:rgb(52,98,176);"/>
        </g>
        <g transform="matrix(-0.67536,0.737488,0.737488,0.67536,96.9962,199.444)">
            <path d="M-18.58,-19.005L-6.54,-19.005L11.095,-11.159L-12.754,-8.19L-18.58,-19.005Z" style="fill:rgb(84,127,201);"/>
        </g>
        <g transform="matrix(1,0,0,1,117.884,204.451)">
            <path d="M0,-31.545L-11.367,0L4.331,-24.751L0,-31.545Z" style="fill:rgb(52,98,176);"/>
        </g>
        <g transform="matrix(0.687672,0.726021,0.726021,-0.687672,129.402,173.316)">
            <path d="M-8.218,-8.08L4.011,-8.08L21.658,-16.068L-2.671,-19.093L-8.218,-8.08Z" style="fill:rgb(84,127,201);"/>
        </g>
        <g opacity="0.1">
            <g transform="matrix(1,0,0,1,95.7783,178.467)">
                <path d="M0,-40.524L22.105,-40.524L22.105,-11.982C16.282,-5.09 8.319,-1.098 0,0L0,-40.524Z"/>
            </g>
        </g>
        <g transform="matrix(1,0,0,1,72.9688,106.76)">
            <path d="M0,35.066C-8.508,9.603 -2.049,-31.546 33.65,-32.501C69.345,-33.456 76.11,9.073 68.005,34.744C57.375,68.414 11.18,68.522 0,35.066" style="fill:rgb(255,204,186);"/>
        </g>
        <g transform="matrix(-0.094605,-0.995515,-0.995515,0.094605,120.032,110.944)">
            <path d="M-6.794,-7.078C-7.356,-8.639 -9.729,-7.784 -9.168,-6.223C-7.814,-2.495 -7.229,1.69 -6.794,5.638C-6.491,7.798 -3.45,7.438 -3.752,5.285C-4.204,1.177 -5.385,-3.198 -6.794,-7.078" style="fill:rgb(22,36,59);"/>
        </g>
        <g transform="matrix(1,0,0,1,120.547,121.195)">
            <path d="M0,5.101C1.373,5.101 2.493,3.955 2.493,2.551C2.493,1.146 1.373,0 0,0C-1.373,0 -2.493,1.146 -2.493,2.551C-2.493,3.955 -1.373,5.101 0,5.101" style="fill:rgb(31,33,38);"/>
        </g>
        <g transform="matrix(1,0,0,1,92.5142,121.195)">
            <path d="M0,5.101C1.374,5.101 2.493,3.955 2.493,2.551C2.493,1.146 1.374,0 0,0C-1.373,0 -2.493,1.146 -2.493,2.551C-2.493,3.955 -1.373,5.101 0,5.101" style="fill:rgb(31,33,38);"/>
        </g>
        <g transform="matrix(1,0,0,1,112.727,64.5667)">
            <path d="M0,56.403C-2.371,50.605 -8.667,40.998 -10.922,30.721C-2.391,43.562 12.562,50.655 19.566,51.626C23.299,52.142 21.744,61.223 27.473,61.61C35.946,45.688 38.303,24.909 21.952,12.9C5.628,0.911 -34.883,-5.207 -34.499,16.232C-34.35,24.553 -24.917,38.755 0,56.403" style="fill:rgb(22,36,59);"/>
        </g>
        <g transform="matrix(1,0,0,1,88.8208,141.697)">
            <path d="M0,-62.546C-7.089,-58.582 -7.688,1.648 -19.199,-20.477C-28.392,-54.945 -17.394,-64.194 0,-62.546" style="fill:rgb(22,36,59);"/>
        </g>
        <g transform="matrix(-0.0241617,0.999708,0.999708,0.0241617,118.741,126.974)">
            <path d="M-2.539,-11.176C3.478,-7.14 9.621,-2.179 11.119,-11.176" style="fill:none;fill-rule:nonzero;stroke:rgb(229,183,167);stroke-width:0.08px;"/>
        </g>
        <g transform="matrix(1,0,0,1,89.9292,146.779)">
            <path d="M0,-5.627C-13.483,-18.702 -18.592,-18.538 -19.628,-14.148C-20.664,-9.759 -9.065,6.583 -1.375,13.075" style="fill:none;fill-rule:nonzero;stroke:white;stroke-width:0.05px;"/>
        </g>
        <g transform="matrix(1,0,0,1,124.779,146.779)">
            <path d="M0,-6.669C13.483,-19.744 17.29,-18.538 18.325,-14.148C19.361,-9.759 8.283,6.583 0.594,13.075" style="fill:none;fill-rule:nonzero;stroke:white;stroke-width:0.05px;"/>
        </g>
        <g transform="matrix(0.511369,0.859361,0.859361,-0.511369,89.5334,138.754)">
            <path d="M17.648,-14.835C35.923,-10.324 45.036,10.009 39.493,23.062C34.07,24.248 22.692,27.555 17.648,33.238C9.726,27.399 -1.104,11.538 -3.167,-1.742C4.233,-3.466 14.02,-10.635 17.648,-14.835" style="fill:rgb(31,195,207);"/>
        </g>
        <g transform="matrix(1,0,0,1,128.505,145.939)">
            <path d="M0,14.804C-2.255,9.429 -4.286,-2.154 -2.552,-8.451C-9.25,-11.018 -18.717,-11.647 -25.658,-11.293C-30.716,-11.034 -36.127,-10.226 -40.918,-8.44C-39.188,-2.147 -39.398,10.298 -41.583,15.332C-30.444,26.451 -9.654,26.1 0,14.804Z" style="fill:none;fill-rule:nonzero;stroke:white;stroke-width:0.01px;stroke-linecap:butt;stroke-linejoin:miter;stroke-dasharray:0.03,0.04;"/>
        </g>
        <g opacity="0.15">
            <g transform="matrix(1,0,0,1,122.199,138.433)">
                <path d="M0,4.809C-7.157,0.694 -22.439,0 -30.861,4.809C-20.863,3.547 -9.066,3.946 0,4.809"/>
            </g>
        </g>
        <g opacity="0.15">
            <g transform="matrix(1,0,0,1,122.199,167.238)">
                <path d="M0,-6.451C-7.157,-0.93 -22.439,0 -30.861,-6.451C-20.863,-4.758 -9.066,-5.294 0,-6.451"/>
            </g>
        </g>
        <g opacity="0.15">
            <g transform="matrix(1,0,0,1,122.199,155.625)">
                <path d="M0,-4.63C-7.157,-0.668 -22.439,0 -30.861,-4.63C-20.478,-4.227 -8.693,-4.586 0,-4.63"/>
            </g>
        </g>
        <g transform="matrix(1,0,0,1,68.6333,120.043)">
            <path d="M0,20.042C4.014,20.042 7.288,15.54 7.288,10.021C7.288,4.501 4.014,0 0,0C-4.014,0 -7.288,4.501 -7.288,10.021C-7.288,15.54 -4.014,20.042 0,20.042" style="fill:rgb(255,204,186);"/>
        </g>
        <g transform="matrix(0.586227,0.810146,0.810146,-0.586227,69.9602,123.421)">
            <path d="M-1.314,-3.979C-0.569,-0.503 3.683,0.399 8.542,-3.979" style="fill:none;fill-rule:nonzero;stroke:rgb(229,183,167);stroke-width:0.08px;"/>
        </g>
        <g transform="matrix(0.729239,-0.684259,-0.684259,-0.729239,69.202,135.967)">
            <path d="M-1.299,2.133C0.168,4.848 3.561,4.999 5.393,2.133" style="fill:none;fill-rule:nonzero;stroke:rgb(229,183,167);stroke-width:0.08px;"/>
        </g>
        <g transform="matrix(1,0,0,1,145.03,120.043)">
            <path d="M0,20.042C4.014,20.042 7.288,15.54 7.288,10.021C7.288,4.501 4.014,0 0,0C-4.014,0 -7.289,4.501 -7.289,10.021C-7.289,15.54 -4.014,20.042 0,20.042" style="fill:rgb(255,204,186);"/>
        </g>
        <g transform="matrix(-0.586227,0.810146,0.810146,0.586227,144.004,132.508)">
            <path d="M-7.791,-2.572C-7.045,-6.048 -2.793,-6.951 2.066,-2.572" style="fill:none;fill-rule:nonzero;stroke:rgb(229,183,167);stroke-width:0.08px;"/>
        </g>
        <g transform="matrix(-0.729239,-0.684259,-0.684259,0.729239,143.973,129.218)">
            <path d="M-5.391,3.282C-3.924,0.567 -0.532,0.416 1.301,3.282" style="fill:none;fill-rule:nonzero;stroke:rgb(229,183,167);stroke-width:0.08px;"/>
        </g>
        <g transform="matrix(1,0,0,1,162.28,197.097)">
            <path d="M0,30.157L-24.296,30.157C-23.142,18.93 -18.958,8.603 -12.581,0C-5.702,8.386 -1.171,18.773 0,30.157" style="fill:rgb(84,133,217);"/>
        </g>
        <g transform="matrix(1,0,0,1,73.624,196.973)">
            <path d="M0,30.281L-24.49,30.281C-23.314,18.841 -18.744,8.408 -11.808,0C-5.378,8.628 -1.16,19 0,30.281" style="fill:rgb(84,133,217);"/>
        </g>
        <g opacity="0.3">
            <g transform="matrix(1,0,0,1,111.197,169.223)">
                <path d="M0,-34.525C1.253,-28.702 -1.162,-22.933 -4.768,-19.807C-8.639,-16.453 -3.833,-8.645 -4.292,0.18C-11.646,-0.025 -19.03,-2.716 -24.274,-7.951C-22.09,-12.986 -21.88,-25.43 -23.609,-31.724C-18.819,-33.509 -13.407,-34.317 -8.35,-34.576C-5.817,-34.705 -2.948,-34.704 0,-34.525" style="fill:white;"/>
            </g>
        </g>
        <g transform="matrix(-0.094605,0.995515,0.995515,0.094605,93.618,110.944)">
            <path d="M6.794,-7.078C7.356,-8.639 9.729,-7.784 9.168,-6.223C7.814,-2.495 7.229,1.69 6.794,5.638C6.491,7.798 3.45,7.438 3.752,5.285C4.204,1.177 5.385,-3.198 6.794,-7.078" style="fill:rgb(22,36,59);"/>
        </g>
    </g>
    <g transform="matrix(1.30451,0,0,1.30451,-735.193,-1249.23)">
        <path d="M4319,3634.75C4319,3526.71 4231.29,3439 4123.25,3439L876.75,3439C768.713,3439 681,3526.71 681,3634.75L681,4026.25C681,4134.29 768.713,4222 876.75,4222L4123.25,4222C4231.29,4222 4319,4134.29 4319,4026.25L4319,3634.75Z" style="fill:rgb(156,186,240);"/>
    </g>
    <g transform="matrix(1.30451,0,0,1.30451,-787.374,-1304.02)">
        <path d="M4319,3634.75C4319,3526.71 4231.29,3439 4123.25,3439L876.75,3439C768.713,3439 681,3526.71 681,3634.75L681,4026.25C681,4134.29 768.713,4222 876.75,4222L4123.25,4222C4231.29,4222 4319,4134.29 4319,4026.25L4319,3634.75Z" style="fill:url(#_Linear2);"/>
    </g>
    <defs>
        <linearGradient id="_Linear2" x1="0" y1="0" x2="1" y2="0" gradientUnits="userSpaceOnUse" gradientTransform="matrix(1.29384e-13,-2113,2113,1.29384e-13,2571,4632)"><stop offset="0" style="stop-color:white;stop-opacity:1"/><stop offset="1" style="stop-color:rgb(240,244,253);stop-opacity:1"/></linearGradient>
    </defs>
</svg>
