<svg width="442" height="442" viewBox="0 0 442 442" fill="none" xmlns="http://www.w3.org/2000/svg">
<path d="M123.459 133.821V253.473L215.566 306.651L318.538 246.826V127.174L227.079 73.9958L123.459 133.821Z" fill="#D8D8DA"/>
<path d="M318.538 127.177V246.828L215.566 306.654V187.002L318.538 127.177Z" fill="#C6C5CB"/>
<path d="M278.824 206.619L278.843 213.435L277.213 214.376L277.205 211.71L275.218 212.858L275.225 215.524L273.595 216.465L273.575 209.649L275.206 208.707L275.213 211.222L277.201 210.075L277.193 207.56L278.824 206.619ZM282.551 209.692C282.783 209.558 282.989 209.381 283.158 209.183C283.334 208.973 283.471 208.757 283.584 208.518C283.689 208.291 283.771 208.049 283.82 207.804C283.876 207.548 283.9 207.317 283.9 207.094C283.899 206.863 283.867 206.659 283.816 206.471C283.759 206.288 283.671 206.151 283.558 206.051C283.444 205.957 283.3 205.903 283.131 205.908C282.961 205.905 282.76 205.97 282.535 206.101C282.296 206.238 282.096 206.405 281.927 206.603C281.758 206.808 281.614 207.022 281.508 207.256C281.396 207.494 281.315 207.729 281.259 207.977C281.209 208.222 281.185 208.453 281.186 208.676C281.186 208.907 281.212 209.116 281.269 209.299C281.326 209.483 281.408 209.623 281.521 209.724C281.635 209.824 281.773 209.881 281.943 209.884C282.111 209.895 282.318 209.826 282.551 209.692ZM282.554 204.422C283.006 204.161 283.414 204.027 283.784 204.015C284.148 204 284.462 204.085 284.727 204.257C284.991 204.429 285.193 204.688 285.338 205.023C285.483 205.35 285.553 205.742 285.555 206.175C285.557 206.622 285.483 207.098 285.333 207.595C285.184 208.1 284.978 208.58 284.709 209.052C284.441 209.525 284.121 209.969 283.752 210.37C283.383 210.779 282.976 211.107 282.537 211.361C282.085 211.622 281.677 211.763 281.307 211.775C280.943 211.783 280.622 211.708 280.364 211.532C280.1 211.36 279.892 211.112 279.747 210.778C279.601 210.45 279.531 210.058 279.529 209.618C279.528 209.164 279.602 208.688 279.752 208.191C279.901 207.686 280.107 207.199 280.375 206.727C280.644 206.254 280.963 205.817 281.339 205.413C281.708 205.004 282.109 204.678 282.554 204.422ZM288.261 201.113C287.966 201.282 287.684 201.496 287.421 201.741C287.158 201.995 286.926 202.272 286.72 202.587C286.514 202.901 286.351 203.232 286.233 203.589C286.115 203.947 286.053 204.314 286.054 204.696C286.054 204.941 286.086 205.146 286.143 205.308C286.2 205.463 286.295 205.582 286.415 205.664C286.54 205.743 286.698 205.79 286.886 205.796C287.075 205.803 287.301 205.787 287.564 205.737C287.74 205.707 287.91 205.667 288.073 205.623C288.23 205.583 288.368 205.561 288.493 205.539C288.619 205.518 288.713 205.521 288.782 205.546C288.852 205.578 288.89 205.635 288.89 205.729C288.89 205.822 288.852 205.917 288.784 206.006C288.715 206.104 288.59 206.205 288.414 206.306C288.175 206.444 287.949 206.531 287.724 206.589C287.498 206.641 287.291 206.674 287.115 206.681C286.901 206.696 286.7 206.682 286.505 206.658L285.808 208.707C285.984 208.727 286.179 208.724 286.386 208.697C286.599 208.668 286.813 208.632 287.039 208.573C287.265 208.508 287.497 208.431 287.723 208.337C287.949 208.25 288.174 208.134 288.393 208.008C288.663 207.852 288.933 207.66 289.208 207.429C289.477 207.201 289.716 206.941 289.935 206.649C290.147 206.36 290.316 206.038 290.447 205.682C290.578 205.332 290.646 204.946 290.645 204.536C290.644 204.218 290.599 203.97 290.517 203.794C290.429 203.621 290.309 203.495 290.152 203.427C289.994 203.366 289.806 203.338 289.586 203.35C289.367 203.361 289.121 203.394 288.846 203.46C288.676 203.492 288.519 203.525 288.381 203.562C288.243 203.598 288.13 203.613 288.036 203.624C287.942 203.628 287.866 203.621 287.816 203.592C287.765 203.564 287.74 203.499 287.74 203.412C287.74 203.29 287.783 203.178 287.871 203.077C287.959 202.976 288.071 202.882 288.216 202.799C288.398 202.694 288.579 202.625 288.768 202.581C288.95 202.548 289.119 202.523 289.27 202.508C289.452 202.496 289.622 202.499 289.791 202.517L290.489 200.562C290.357 200.566 290.207 200.566 290.037 200.578C289.867 200.589 289.691 200.611 289.497 200.651C289.302 200.692 289.101 200.743 288.901 200.815C288.693 200.885 288.48 200.986 288.261 201.113ZM292.985 201.539L293.844 201.043C293.95 200.981 294.038 200.88 294.125 200.721C294.213 200.563 294.256 200.35 294.255 200.076C294.254 199.795 294.203 199.629 294.104 199.587C294.003 199.536 293.903 199.544 293.802 199.602L292.98 200.076L292.985 201.539ZM293.904 197.912C294.192 197.745 294.462 197.655 294.707 197.65C294.952 197.646 295.165 197.703 295.342 197.825C295.518 197.948 295.657 198.12 295.758 198.343C295.859 198.573 295.909 198.832 295.91 199.121C295.911 199.416 295.862 199.741 295.768 200.083C295.675 200.419 295.544 200.747 295.376 201.068C295.207 201.389 295.001 201.681 294.756 201.953C294.519 202.227 294.249 202.448 293.961 202.614L292.989 203.176L292.995 205.265L291.364 206.207L291.345 199.391L293.904 197.912ZM298.187 195.44L296.556 196.381L296.576 203.197L298.206 202.256L298.187 195.44ZM303.83 192.181L298.782 195.095L298.787 196.724L300.498 195.736L300.513 200.923L302.143 199.982L302.128 194.794L303.834 193.81L303.83 192.181ZM305.623 195.39L306.701 194.767L306.168 192.953L305.623 195.39ZM306.909 190.404L308.985 196.033L307.33 196.988L306.963 195.866L305.383 196.778L305.035 198.313L303.374 199.272L305.417 191.265L306.909 190.404ZM311.085 187.993L309.454 188.934L309.474 195.75L313.8 193.252L313.796 191.624L311.099 193.18L311.085 187.993Z" fill="#C60024"/>
<path d="M157.996 167.149L215.564 200.385V306.653L157.996 273.506V167.149Z" fill="#59A4FF"/>
<path d="M215.566 200.384L261.619 173.706L261.621 280.048L215.566 306.652V200.384Z" fill="#2487FF"/>
<path d="M303.841 255.364V213.927L285.005 224.838V266.307L303.841 255.364Z" fill="#2487FF"/>
<path d="M293.883 261.154L294.964 260.526V219.074L293.883 219.7V261.154Z" fill="#016EF1"/>
<path d="M204.353 207.531L215.564 214.009V213.167L204.353 206.689V193.909L203.624 193.488V206.268L192.839 200.036V187.262L192.11 186.841V199.615L181.326 193.383V180.615L180.597 180.194V192.963L169.813 186.731V173.967L169.084 173.546V186.31L157.996 179.903V180.745L169.084 187.152V199.582L157.996 193.176V194.017L169.084 200.424V212.855L157.996 206.448V207.29L169.084 213.697V226.128L157.996 219.721V220.563L169.084 226.97V239.401L157.996 232.994V233.836L169.084 240.243V252.673L157.996 246.267V247.108L169.084 253.515V265.946L157.996 259.539V260.381L169.084 266.788V279.888L169.813 280.308V267.209L180.597 273.441V286.517L181.326 286.937V273.861L192.11 280.093V293.147L192.839 293.567V280.513L203.624 286.745V299.776L204.353 300.195V287.166L215.564 293.644V292.802L204.353 286.324V273.893L215.564 280.371V279.529L204.353 273.051V260.62L215.564 267.098V266.256L204.353 259.779V247.349L215.564 253.826V252.986L204.353 246.508V234.077L215.564 240.554V239.713L204.353 233.235V220.804L215.564 227.281V226.44L204.353 219.962V207.531ZM180.598 272.598L169.813 266.366V253.936L180.598 260.167V272.598ZM180.598 259.325L169.813 253.094V240.663L180.598 246.895V259.325ZM180.598 246.054L169.813 239.822V227.391L180.598 233.623V246.054ZM180.598 232.781L169.813 226.549V214.118L180.598 220.35V232.781ZM180.598 219.508L169.813 213.276V200.846L180.598 207.077V219.508ZM180.598 206.236L169.813 200.004V187.573L180.598 193.805V206.236ZM192.111 279.251L181.326 273.019V260.589L192.111 266.82V279.251ZM192.111 265.978L181.326 259.747V247.316L192.111 253.548V265.978ZM192.111 252.707L181.326 246.475V234.044L192.111 240.276V252.707ZM192.111 239.434L181.326 233.202V220.771L192.111 227.003V239.434ZM192.111 226.161L181.326 219.929V207.499L192.111 213.73V226.161ZM192.111 212.889L181.326 206.657V194.226L192.111 200.458V212.889ZM203.624 285.904L192.84 279.672V267.241L203.624 273.473V285.904ZM203.624 272.631L192.84 266.4V253.969L203.624 260.201V272.631ZM203.624 259.359L192.84 253.127V240.696L203.624 246.928V259.359ZM203.624 246.087L192.84 239.855V227.424L203.624 233.656V246.087ZM203.624 232.814L192.84 226.582V214.151L203.624 220.383V232.814ZM203.624 219.542L192.84 213.31V200.879L203.624 207.111V219.542Z" fill="#2487FF"/>
<path d="M261.62 187.419V186.577L250.47 193.014V180.161L249.742 180.583V193.435L238.957 199.661V186.831L238.228 187.253V200.083L227.444 206.309V193.501L226.715 193.923V206.73L215.566 213.167V214.008L226.715 207.572V220.025L215.566 226.461V227.303L226.715 220.866V233.319L215.566 239.756V240.597L226.715 234.161V246.614L215.566 253.05V253.892L226.715 247.455V259.908L215.566 266.345V267.186L226.715 260.75V273.203L215.566 279.639V280.481L226.715 274.044V286.497L215.566 292.934V293.776L226.715 287.339V300.209L227.444 299.789V286.919L238.228 280.692V293.559L238.957 293.138V280.271L249.742 274.045V286.908L250.47 286.487V273.624L261.62 267.186V266.345L250.471 272.782V260.329L261.621 253.891V253.05L250.471 259.487V247.034L261.621 240.597V239.756L250.471 246.192V233.739L261.621 227.303V226.461L250.471 232.898V220.445L261.621 214.008V213.167L250.471 219.603V207.15L261.621 200.714V199.872L250.471 206.309V193.856L261.62 187.419ZM238.228 279.85L227.444 286.077V273.624L238.228 267.397V279.85ZM238.228 266.555L227.444 272.782V260.329L238.228 254.102V266.555ZM238.228 253.26L227.444 259.487V247.034L238.228 240.808V253.26ZM238.228 239.966L227.444 246.192V233.739L238.228 227.513V239.966ZM238.228 226.671L227.444 232.898V220.445L238.228 214.219V226.671ZM238.228 213.377L227.444 219.603V207.15L238.228 200.924V213.377ZM249.742 273.202L238.958 279.429V266.976L249.742 260.75V273.202ZM249.742 259.908L238.958 266.135V253.682L249.742 247.455V259.908ZM249.742 246.614L238.958 252.84V240.387L249.742 234.161V246.614ZM249.742 233.319L238.958 239.545V227.092L249.742 220.866V233.319ZM249.742 220.024L238.958 226.251V213.798L249.742 207.572V220.024ZM249.742 206.73L238.958 212.956V200.503L249.742 194.277V206.73Z" fill="#016EF1"/>
<path d="M123.459 133.821L227.079 73.9958L318.538 127.174L215.566 187L123.459 133.821Z" fill="#E0E0E2"/>
<path d="M146.484 133.819L227.078 87.288L295.51 127.172L215.564 173.703L146.484 133.819Z" fill="#898890"/>
<path d="M230.886 135.48L236.192 138.544L241.498 135.48L246.804 138.544L241.498 141.608L246.804 144.671L262.721 135.48L257.416 132.417L252.11 135.48L246.804 132.417L252.11 129.354L246.804 126.291L230.886 135.48Z" fill="#E0E0E2"/>
<path d="M157.997 140.467L227.078 100.583V87.288L146.484 133.819L157.997 140.467Z" fill="#ACABB1"/>
<path d="M168.769 128.838L191.796 115.543L214.823 128.838V142.133L191.796 155.428L168.769 142.133V128.838Z" fill="#E0E0E2"/>
<path d="M168.769 128.835V142.13L191.796 155.425V142.13L168.769 128.835Z" fill="#C6C5CB"/>
<path d="M191.794 155.425L214.821 142.13V128.835L191.794 142.13V155.425Z" fill="#ACABB1"/>
<path d="M227.078 100.583L283.398 134.222L295.51 127.172L227.078 87.288V100.583Z" fill="#C6C5CB"/>
<path d="M284.821 173.595V164.139L293.335 159.208L296.44 161.013V166.887L301.591 163.913L304.695 165.717V175.531L296.494 180.282L296.521 189.738L287.954 194.669L284.849 192.865V187L279.697 189.964L276.592 188.16V178.346L284.821 173.595Z" fill="#A50020"/>
<path d="M287.951 185.211L284.846 183.407V192.863L287.951 194.666V185.211Z" fill="#C60024"/>
<path d="M304.694 165.719L301.589 163.915L293.36 168.666L296.438 170.47L304.694 165.719Z" fill="#FE0B37"/>
<path d="M279.697 180.147L276.592 178.343V188.157L279.697 189.961V180.147Z" fill="#C60024"/>
<path d="M287.925 175.395L284.821 173.591L276.592 178.342L279.697 180.146L287.925 175.395Z" fill="#FE0B37"/>
<path d="M287.924 165.943L284.82 164.139V173.594L287.924 175.398V165.943Z" fill="#C60024"/>
<path d="M296.439 161.013L293.334 159.208L284.82 164.139L287.925 165.943L296.439 161.013Z" fill="#FE0B37"/>
<path d="M287.927 165.944V175.4L279.698 180.151V189.965L287.955 185.214V194.669L296.523 189.739L296.496 180.283L304.697 175.532V165.717L296.441 170.469V161.013L287.927 165.944Z" fill="#A50020"/>
<path fill-rule="evenodd" clip-rule="evenodd" d="M421.557 303.961C421.557 292.179 411.991 282.613 400.209 282.613H46.1553C34.3731 282.613 24.8074 292.179 24.8074 303.961V346.657C24.8074 358.439 34.3731 368.005 46.1553 368.005H400.209C411.991 368.005 421.557 358.439 421.557 346.657V303.961Z" fill="#FF4D6D"/>
<path fill-rule="evenodd" clip-rule="evenodd" d="M417.194 299.382C417.194 287.599 407.629 278.034 395.846 278.034H41.7926C30.0104 278.034 20.4447 287.599 20.4447 299.382V342.077C20.4447 353.86 30.0104 363.425 41.7926 363.425H395.846C407.629 363.425 417.194 353.86 417.194 342.077V299.382Z" fill="url(#paint0_linear)"/>
<defs>
<linearGradient id="paint0_linear" x1="226.562" y1="408.139" x2="226.562" y2="177.701" gradientUnits="userSpaceOnUse">
<stop stop-color="white"/>
<stop offset="1" stop-color="#FCEDF0"/>
</linearGradient>
</defs>
</svg>
