<?xml version="1.0" standalone="no"?>
<!DOCTYPE svg PUBLIC "-//W3C//DTD SVG 20010904//EN"
 "http://www.w3.org/TR/2001/REC-SVG-20010904/DTD/svg10.dtd">
<svg version="1.0" xmlns="http://www.w3.org/2000/svg"
 width="5000.000000pt" height="5000.000000pt" viewBox="0 0 5000.000000 5000.000000"
 preserveAspectRatio="xMidYMid meet">

<g transform="translate(0.000000,5000.000000) scale(0.100000,-0.100000)"
fill="#000000" stroke="none">
<path d="M33140 32097 l-505 -293 -5 -568 -5 -569 -487 -281 -488 -281 0 -590
0 -590 186 -107 185 -108 304 175 c167 96 307 175 310 175 3 0 5 -157 5 -349
l0 -349 173 -101 c94 -55 179 -102 187 -105 9 -3 229 117 525 288 l510 294 -4
564 -4 564 491 284 492 285 0 591 0 590 -185 107 -185 108 -302 -175 -303
-175 -3 347 -3 347 -184 108 c-101 59 -188 107 -192 107 -5 0 -235 -132 -513
-293z"/>
<path d="M18790 29910 c0 -418 -2 -760 -3 -760 -2 0 -215 122 -473 271 -258
149 -553 320 -656 380 l-188 108 0 -47 0 -47 660 -380 659 -380 1 -748 c0
-709 -1 -747 -17 -738 -10 5 -306 176 -658 380 l-640 370 -3 -46 c-2 -25 -2
-46 0 -47 2 -1 299 -173 661 -381 l657 -380 0 -747 0 -747 -57 33 c-211 123
-1257 726 -1260 726 -2 0 -3 -21 -1 -46 l3 -46 658 -380 657 -380 0 -744 c0
-409 -3 -744 -6 -744 -3 0 -298 169 -655 375 -356 206 -651 375 -654 375 -3 0
-5 -20 -5 -44 l0 -43 538 -311 c295 -171 591 -342 657 -380 l120 -70 3 -746
c1 -410 1 -746 -1 -746 -3 0 -1066 613 -1259 726 l-58 33 0 -47 0 -47 660
-380 659 -380 1 -748 0 -749 -42 25 c-24 13 -306 176 -628 362 -322 186 -600
346 -617 357 l-33 20 0 -49 1 -48 207 -119 c114 -65 411 -236 659 -380 l453
-261 0 -747 0 -747 -257 148 c-142 82 -438 253 -658 380 l-400 231 -3 -42 c-3
-31 1 -46 14 -55 10 -7 307 -180 661 -384 l643 -372 0 -673 0 -674 40 0 40 0
0 645 c0 388 4 645 9 645 5 0 297 -166 648 -369 l638 -369 3 -276 2 -276 40 0
40 0 2 250 3 250 434 -250 434 -251 76 3 76 3 -512 295 -512 295 -1 744 c0
703 1 743 18 738 9 -3 301 -169 647 -370 l630 -364 3 -672 2 -671 40 0 40 0 2
645 3 646 625 -361 c344 -199 635 -368 648 -376 22 -14 22 -15 22 -284 l0
-270 40 0 40 0 0 245 c0 135 3 245 6 245 3 0 196 -110 430 -245 l424 -246 77
3 76 3 -504 291 -504 291 -3 747 c-1 410 0 746 2 746 2 0 302 -173 667 -384
l664 -384 3 -656 2 -656 2750 0 2750 0 0 648 c2 4491 -1 11806 -4 11809 -3 4
-1064 -604 -1376 -788 -30 -17 -341 -197 -690 -399 -349 -203 -660 -382 -690
-400 -228 -134 -1298 -754 -1310 -759 -9 -3 -74 -41 -145 -84 -72 -42 -389
-227 -705 -410 l-575 -333 -3 -763 c-1 -490 -6 -761 -12 -759 -5 2 -307 174
-669 383 l-660 380 -1 766 0 765 -40 23 -40 22 0 -755 c0 -415 -3 -757 -7
-759 -5 -3 -297 162 -650 367 l-643 371 0 765 0 765 -40 22 -40 21 0 -760 c0
-696 -1 -760 -16 -754 -9 3 -302 171 -650 373 l-634 366 0 763 0 762 -34 21
c-18 12 -36 21 -40 21 -3 0 -7 -342 -8 -759 l-3 -759 -645 373 -645 372 -3
766 -2 767 -40 20 -40 20 0 -760z m736 -1282 l644 -373 0 -743 c0 -705 -1
-744 -17 -737 -10 3 -303 171 -650 372 l-633 366 0 743 c0 409 2 744 6 744 3
0 295 -168 650 -372z m1392 -805 l632 -365 0 -744 c0 -409 -2 -744 -5 -744 -3
0 -296 168 -650 372 l-645 373 0 743 c0 705 1 744 18 737 9 -3 302 -171 650
-372z m-1381 -790 l633 -365 0 -744 c0 -409 -2 -744 -5 -744 -10 0 -1259 722
-1277 738 -17 14 -18 63 -18 755 0 699 1 739 17 732 10 -3 303 -171 650 -372z
m2768 -11 l620 -358 3 -735 c1 -404 0 -739 -2 -746 -3 -7 -258 134 -650 360
l-645 372 -1 748 0 748 28 -15 c15 -8 306 -176 647 -374z m-1490 -727 c303
-175 592 -342 643 -372 l92 -54 0 -745 c0 -409 -1 -744 -3 -744 -2 0 -255 145
-563 323 -307 178 -598 345 -646 373 l-87 49 -1 748 c0 412 3 746 8 744 4 -3
255 -147 557 -322z m2866 -68 l664 -384 3 -746 c1 -411 1 -747 -1 -747 -2 0
-302 173 -668 384 l-664 383 -3 747 c-1 410 0 746 2 746 2 0 302 -173 667
-383z m-4146 -779 l630 -365 3 -747 c1 -411 -2 -746 -6 -744 -12 5 -1211 698
-1254 725 l-38 23 0 741 c0 701 1 741 18 736 9 -2 301 -169 647 -369z m2736 6
c349 -202 640 -371 647 -376 9 -8 12 -170 12 -750 0 -700 -1 -740 -17 -735
-10 2 -301 169 -648 370 l-630 364 -3 747 c-1 410 0 746 2 746 2 0 289 -165
637 -366z m-1354 -805 c335 -193 614 -356 621 -363 9 -9 12 -168 10 -753 l-3
-742 -645 373 -645 373 -3 747 -2 747 30 -16 c16 -8 303 -173 637 -366z m2773
-14 l659 -380 1 -748 0 -749 -32 19 c-18 11 -320 185 -670 387 l-638 368 0
745 c0 489 3 744 10 741 5 -1 307 -174 670 -383z m-4159 -772 l638 -368 1
-748 0 -748 -27 15 c-16 8 -307 177 -648 374 l-620 359 -3 741 c-2 567 1 742
10 742 6 0 299 -165 649 -367z m2737 5 c345 -198 635 -368 645 -376 16 -14 17
-63 17 -755 0 -687 -1 -739 -17 -733 -9 4 -301 171 -650 372 l-633 366 0 744
c0 409 3 744 6 744 3 0 287 -163 632 -362z m-1363 -800 l645 -373 0 -743 c0
-705 -1 -744 -17 -737 -10 3 -303 171 -650 372 l-633 365 0 744 c0 409 2 744
5 744 3 0 296 -168 650 -372z m2978 -133 l467 -270 0 -747 0 -747 -203 117
c-111 64 -413 238 -670 387 l-467 270 0 747 0 747 203 -117 c111 -64 413 -238
670 -387z m-4358 -657 l645 -373 0 -747 0 -747 -222 129 c-123 70 -414 238
-648 373 l-425 246 -3 745 c-1 411 0 746 3 746 3 0 296 -168 650 -372z m2772
-15 l633 -365 0 -738 c0 -407 -3 -741 -7 -743 -5 -3 -297 162 -650 366 l-643
372 0 743 c0 704 1 744 17 737 10 -3 303 -171 650 -372z m-1380 -789 l633
-366 0 -744 c0 -409 -3 -744 -6 -744 -3 0 -295 167 -650 372 l-644 372 0 744
c0 690 1 744 17 738 9 -4 301 -171 650 -372z m2693 30 c322 -186 620 -358 663
-382 l77 -44 0 -745 c0 -599 -2 -744 -13 -740 -7 2 -269 153 -582 334 -314
181 -609 351 -657 379 l-87 49 -1 748 c0 412 3 746 8 744 4 -3 270 -157 592
-343z m-4074 -821 l634 -366 0 -743 c0 -409 -3 -744 -6 -744 -3 0 -296 167
-650 372 l-644 372 0 744 c0 685 1 744 16 738 9 -4 302 -171 650 -373z m2769
-11 l620 -359 3 -739 c1 -406 -1 -741 -5 -744 -5 -4 -297 160 -650 364 l-642
371 -1 748 0 748 28 -15 c15 -8 306 -177 647 -374z"/>
<path d="M35668 28887 l-88 -52 0 -408 0 -408 58 32 c31 18 147 85 257 149
l200 116 3 97 c1 53 1 97 -2 97 -2 0 -73 -40 -158 -89 l-153 -89 -3 304 c-2
234 -5 304 -15 303 -6 0 -51 -23 -99 -52z"/>
<path d="M35186 28607 l-89 -52 -120 -468 c-65 -258 -116 -471 -113 -474 3 -3
47 19 98 48 l92 54 19 91 20 91 89 52 c50 28 93 51 97 51 5 0 16 -27 26 -60
10 -33 22 -60 27 -60 15 0 188 102 188 111 0 9 -239 661 -244 666 -1 1 -42
-21 -90 -50z m38 -375 c15 -52 26 -95 24 -96 -2 -2 -29 -17 -60 -35 -38 -21
-58 -28 -58 -19 0 31 54 257 60 251 4 -5 19 -50 34 -101z"/>
<path d="M34597 28269 l-297 -172 0 -93 c0 -52 3 -94 8 -94 4 0 50 25 102 54
l95 55 3 -309 2 -309 88 50 c48 28 93 56 100 62 11 9 13 72 11 316 l-3 306
102 59 102 59 0 93 c0 52 -3 94 -8 94 -4 0 -141 -77 -305 -171z"/>
<path d="M34128 27998 l-88 -50 0 -410 0 -410 38 22 c20 12 66 39 101 59 l64
36 -7 179 c-3 99 -6 280 -6 403 0 122 -3 223 -7 222 -5 0 -47 -23 -95 -51z"/>
<path d="M33735 27769 c-87 -46 -315 -182 -320 -190 -3 -4 -2 -188 1 -407 l7
-399 91 52 91 53 5 128 5 127 81 48 c95 56 161 125 204 213 78 159 79 299 3
366 -42 38 -108 41 -168 9z m20 -276 c0 -71 -13 -89 -97 -138 l-48 -27 0 89 0
88 48 27 c26 15 58 26 72 25 24 -2 25 -5 25 -64z"/>
<path d="M33236 27439 c-39 -4 -90 -15 -115 -25 -161 -60 -302 -226 -333 -390
-13 -70 -4 -144 20 -175 25 -30 96 -36 197 -14 89 18 115 16 115 -11 0 -48
-113 -104 -223 -109 l-62 -3 -42 -123 -43 -122 65 6 c140 13 288 89 390 199
83 90 125 188 125 295 0 134 -58 166 -230 128 -85 -19 -107 -18 -114 1 -18 47
72 104 176 112 37 2 69 10 71 16 32 83 78 218 75 220 -2 1 -34 -1 -72 -5z"/>
<path d="M32427 27015 c-99 -37 -243 -168 -312 -287 -92 -157 -133 -330 -105
-446 73 -307 439 -194 635 196 111 223 96 460 -35 529 -50 26 -123 30 -183 8z
m58 -232 c26 -25 35 -59 35 -127 0 -112 -58 -234 -137 -289 -78 -54 -139 -45
-167 25 -48 119 28 327 142 387 46 25 105 27 127 4z"/>
<path d="M31818 26664 l-98 -56 0 -152 0 -151 -111 -64 c-60 -35 -113 -61
-116 -58 -2 3 -7 68 -10 145 l-6 139 -91 -52 -91 -53 -3 -406 c-1 -223 1 -406
4 -406 9 0 132 68 167 92 l27 19 0 158 0 157 115 67 115 66 0 -154 c0 -85 4
-155 9 -155 5 0 50 23 100 52 l91 52 0 408 c0 224 -1 408 -2 408 -2 0 -47 -25
-100 -56z"/>
<path d="M34373 25532 c-282 -163 -544 -315 -582 -337 -39 -22 -309 -179 -601
-349 l-530 -308 0 -2475 0 -2474 53 30 c51 29 927 536 1069 618 40 24 307 179
593 346 l520 303 3 2472 c1 1360 -1 2472 -5 2471 -5 0 -238 -134 -520 -297z"/>
<path d="M48092 16963 c188 -298 320 -681 363 -1052 22 -189 22 -5493 0 -5682
-100 -861 -620 -1605 -1391 -1995 -296 -149 -594 -233 -934 -264 -92 -8 -5753
-10 -21475 -8 -20683 3 -21353 4 -21460 22 -150 25 -390 87 -511 131 -155 57
-389 176 -528 269 -69 46 -126 83 -126 81 0 -13 141 -178 229 -268 415 -425
924 -680 1516 -759 83 -11 3747 -13 21495 -13 20187 0 21401 1 21507 17 580
89 1060 327 1456 723 417 418 669 939 739 1530 10 88 13 662 13 2840 0 2567
-1 2737 -18 2855 -68 478 -223 854 -511 1240 -69 94 -361 396 -403 418 -16 9
-6 -13 39 -85z"/>
</g>
</svg>
